<?xml version="1.0" encoding="utf-8"?>
<!-- Generator: Adobe Illustrator 24.2.3, SVG Export Plug-In . SVG Version: 6.00 Build 0)  -->
<svg version="1.1" id="Layer_1" xmlns="http://www.w3.org/2000/svg" xmlns:xlink="http://www.w3.org/1999/xlink" x="0px" y="0px"
	 viewBox="0 0 100 40.4" style="enable-background:new 0 0 100 40.4;" xml:space="preserve">
<style type="text/css">
	.st0{fill:#8FCAC1;}
	.st1{fill:#59B0A4;}
	.st2{fill:#101733;}
	.st3{fill:#4F0000;}
</style>
<g>
	<path class="st0" d="M73.3,38.2c-1.8-4-3.5-8.1-5.4-12.1c-0.3-0.7-0.2-1,0.4-1.5c1.5-1.1,2.5-2.6,3.2-4.3c1.2-3,1.4-6,0.8-9.2
		c-0.9-5.2-4.2-9-9.6-9.5c-3.9-0.4-7.9-0.2-11.8-0.1v37.1l0.1,0.3c0.2,0.2,0.5,0.2,0.9,0.2c1.8-0.1,3.6-0.1,5.4,0
		c0.7,0,0.9-0.2,0.9-0.9c0-3,0-6,0-9c0-2.1,0-2.1,2-2.1c0.6,0,1,0.2,1.2,0.8c1.5,3.5,3.1,7.1,4.6,10.6c0.2,0.4,0.4,0.6,0.9,0.6
		c1.9,0,3.9,0,5.8,0C73.5,39,73.6,38.9,73.3,38.2z M65.3,16.9C64.6,19,63.2,20,61,20c-0.7,0-1.4,0-2.1,0c-0.6,0-0.7-0.2-0.7-0.7
		c0-1.7,0-3.5,0-5.2s0-3.4,0-5.2c0-0.5,0.1-0.7,0.7-0.7c0.6,0,1.3,0,1.9,0c2.4,0,3.9,1.1,4.6,3.4C65.8,13.4,65.8,15.2,65.3,16.9z"/>
	<path class="st1" d="M98.5,38.3c-1.1-4.9-2.2-9.9-3.3-14.8C93.6,16.4,92,9.4,90.4,2.3c-0.2-0.8-0.5-1-1.2-0.9c-0.9,0-1.9,0-2.8,0
		s-1.9,0-2.8,0c-0.7,0-1,0.2-1.2,0.9c-2.1,9.5-4.2,19-6.4,28.5c-0.5,2.4-1.1,4.9-1.7,7.3c-0.1,0.6-0.1,1,0.7,0.9
		c1.9-0.1,3.8,0,5.7,0c0.5,0,0.8-0.1,0.9-0.7c0.1-0.9,0.3-1.8,0.5-2.7c0.1-0.5,0.2-0.7,0.8-0.7c2.4,0,4.8,0,7.2,0
		c0.6,0,0.8,0.3,0.9,0.8c0.1,0.9,0.3,1.8,0.4,2.6c0.1,0.5,0.3,0.7,0.8,0.7c2,0,3.9,0,5.9,0C98.5,39,98.6,38.9,98.5,38.3z M88.9,28
		c-1.6,0-3.3,0-4.9,0c-0.6,0-0.6-0.3-0.5-0.7c0.9-4.9,1.8-9.7,2.6-14.6c0.1-0.4,0.1-0.8,0.2-1.1c0.1,0,0.2,0,0.3,0
		c0.8,4.5,1.6,9,2.4,13.6c0.1,0.8,0.3,1.5,0.4,2.3C89.4,27.8,89.3,28,88.9,28z"/>
	<path class="st2" d="M26.4,37.1v1.2L26.2,38l-0.6-1.2c-1.8-3.9-3.5-7.7-5.3-11.6c-1-2.2-2-4.5-3.1-6.7c-0.2-0.5-0.3-0.9,0-1.4
		c2.7-5,5.4-10,8.1-15c0.2-0.4,0.5-0.8,1-0.6C26.4,13.3,26.4,25.2,26.4,37.1z"/>
	<path class="st2" d="M26.4,37.6v-0.5C26.4,37.3,26.4,37.5,26.4,37.6z"/>
	<path class="st3" d="M34.7,2c-1.1,4.9-2.2,9.8-3.3,14.8c-1.4,6.4-2.9,12.8-4.3,19.3L27,36.3c-0.1,0.3-0.1,0.5-0.2,0.8
		c0,0.1,0,0.1,0,0.2l0,0l-0.3,1.2l0,0l0,0l-0.1-0.2v-0.7c0-0.1,0-0.3,0-0.5V37c0-11.9-0.1-23.8-0.1-35.7c2.6,0,5.3,0,7.9,0
		C34.8,1.4,34.8,1.6,34.7,2z"/>
	<path class="st3" d="M50.9,1.4v37.1l-0.3-1.3l-1-4.1c-2.3-10.3-4.6-20.7-7-31c-0.1-0.6,0-0.8,0.6-0.8C45.9,1.4,48.4,1.4,50.9,1.4z"
		/>
	<path class="st2" d="M13.2,24.7c2.1,4.9,4.1,9.6,6.1,14.3c-2.8,0-5.5,0-8.2,0c-0.4,0-0.5-0.1-0.5-0.5c0-2.9,0-5.8,0-8.7
		c0-0.1,0-0.3,0.1-0.4C11.6,27.9,12.4,26.4,13.2,24.7z"/>
	<path class="st2" d="M3.4,20.3c0,6,0,11.9,0,17.9c0,0.9-0.4,0.9-1,0.9s-1,0-1-0.9c0-12,0-23.9,0-35.9c0-1,0.5-0.8,1.1-0.9
		c0.7,0,0.9,0.1,0.9,0.9C3.4,8.3,3.4,14.3,3.4,20.3z"/>
	<path class="st2" d="M10.7,16.5c0-0.4-0.1-0.7-0.1-1.1c0-4.4,0-8.7,0-13.1c0-0.7,0.2-0.9,0.9-0.9c2.2,0,4.4,0,6.8,0
		c-2.5,5.1-5,10.1-7.4,15.1C10.9,16.5,10.8,16.5,10.7,16.5z"/>
	<path class="st3" d="M38.8,11.5c0.3,1.5,0.5,2.9,0.8,4.3c0.7,3.8,1.3,7.5,2,11.3c0.1,0.7,0,0.9-0.7,0.9c-1.5,0-3,0-4.5,0
		c-0.5,0-0.7-0.1-0.6-0.6c1-5.2,1.9-10.4,2.9-15.7C38.6,11.7,38.6,11.7,38.8,11.5z"/>
	<path class="st3" d="M38.8,39c-1.5,0-2.9,0-4.4,0c-0.5,0-0.6-0.1-0.5-0.6c0.2-1,0.4-2,0.5-3c0.1-0.4,0.3-0.5,0.7-0.5
		c2.5,0,4.9,0,7.4,0c0.5,0,0.6,0.2,0.7,0.6c0.2,1,0.3,1.9,0.5,2.9c0.1,0.5-0.1,0.6-0.5,0.6C41.6,39,40.2,39,38.8,39z"/>
</g>
</svg>
